<?xml version="1.0" encoding="utf-8"?>
<!-- Generator: Adobe Illustrator 16.0.4, SVG Export Plug-In . SVG Version: 6.00 Build 0)  -->
<!DOCTYPE svg PUBLIC "-//W3C//DTD SVG 1.1//EN" "http://www.w3.org/Graphics/SVG/1.1/DTD/svg11.dtd">
<svg version="1.1" id="Layer_1" xmlns="http://www.w3.org/2000/svg" xmlns:xlink="http://www.w3.org/1999/xlink" x="0px" y="0px"
	 width="77.75px" height="19.75px" viewBox="0 0 77.75 19.75" enable-background="new 0 0 77.75 19.75" xml:space="preserve">
<g>
	<path d="M20.008,7.561l0.276-0.36c0.72,1.115,2.363,1.115,2.363,1.115c1.164,0,1.943-0.828,1.943-1.943
		c0-1.799-2.135-1.787-2.542-1.883c-0.768-0.12-2.075-0.516-2.075-1.967c0-1.175,0.971-2.17,2.303-2.17
		c0.719,0,1.463,0.276,1.919,0.708l-0.24,0.408c-0.492-0.444-1.007-0.636-1.667-0.671c-1.091,0-1.859,0.792-1.859,1.727
		c0,0.852,0.755,1.427,1.667,1.523c1.295,0.132,2.962,0.624,2.962,2.387c0,1.283-1.043,2.291-2.411,2.327
		C22.646,8.76,20.812,8.748,20.008,7.561z"/>
	<path d="M26.92,8.017l-0.6-0.504l-0.004,4.366h-0.519V2.859h0.519l0.004,1.151l0.6-0.503c0.516-0.42,1.127-0.648,1.775-0.648
		c1.547,0,2.818,1.308,2.818,2.902c0,1.595-1.271,2.902-2.818,2.902C28.047,8.664,27.436,8.437,26.92,8.017z M26.356,5.45v0.624
		c0.156,1.223,1.14,2.039,2.339,2.039c1.319,0,2.327-1.008,2.327-2.351s-1.007-2.387-2.327-2.387
		C27.496,3.375,26.512,4.227,26.356,5.45z"/>
	<path d="M32.332,5.906c-0.024-0.192-0.012-0.312,0.012-3.154H32.8v3.226c0.12,1.271,1.283,2.279,2.375,2.279
		c1.08,0,2.111-0.815,2.363-2.051V2.751h0.456v5.997h-0.456V7.465c0,0-0.336,0.408-0.647,0.66c-0.492,0.396-1.091,0.624-1.715,0.624
		c-0.983,0-1.883-0.54-2.411-1.451C32.524,6.877,32.368,6.397,32.332,5.906z"/>
	<path d="M41.318,3.171c-1.08,0.096-1.907,1.031-2.123,2.123V8.76h-0.408V2.74h0.408v1.403c0,0,0.251-0.419,0.624-0.768
		c0.419-0.384,0.936-0.576,1.499-0.635V3.171z"/>
	<path d="M42.064,0.653c0-0.156,0.132-0.276,0.276-0.276c0.156,0,0.276,0.12,0.276,0.276c0,0.144-0.12,0.264-0.276,0.264
		C42.196,0.917,42.064,0.797,42.064,0.653z M42.543,2.764v6.021h-0.479V2.764H42.543z"/>
	<path d="M49.249,5.726c0,1.679-1.332,3.046-2.951,3.046c-1.631,0-2.962-1.368-2.962-3.046c0-1.679,1.332-3.046,2.962-3.046
		C47.917,2.68,49.249,4.047,49.249,5.726z M48.805,5.726c0-1.416-1.127-2.567-2.507-2.567c-1.391,0-2.519,1.151-2.519,2.567
		c0,1.415,1.127,2.566,2.519,2.566C47.678,8.292,48.805,7.141,48.805,5.726z"/>
	<path d="M50.068,5.906c-0.024-0.192-0.012-0.312,0.012-3.154h0.456v3.226c0.12,1.271,1.283,2.279,2.375,2.279
		c1.08,0,2.111-0.815,2.363-2.051V2.751h0.456v5.997h-0.456V7.465c0,0-0.336,0.408-0.647,0.66c-0.492,0.396-1.091,0.624-1.715,0.624
		c-0.983,0-1.883-0.54-2.411-1.451C50.26,6.877,50.104,6.397,50.068,5.906z"/>
	<path d="M56.548,8.005l0.204-0.348c0.432,0.396,0.911,0.66,1.751,0.672c0.779-0.012,1.307-0.528,1.307-1.283
		c0-0.996-0.947-1.211-1.331-1.235c-0.828-0.048-1.955-0.372-1.955-1.523c0-0.863,0.708-1.595,1.679-1.595
		c0.54,0,1.103,0.228,1.427,0.552l-0.228,0.408c-0.348-0.335-0.72-0.492-1.188-0.516c-0.624,0-1.247,0.42-1.247,1.151
		c0,0.792,0.684,1.067,1.355,1.104c0.9,0.048,1.931,0.6,1.931,1.655c0,0.959-0.78,1.703-1.751,1.703
		C57.699,8.748,56.92,8.46,56.548,8.005z"/>
</g>
<g>
	<path d="M6.716,11.574l-0.251,0.468c-0.564-0.36-1.224-0.527-1.907-0.527c-2.003,0-3.694,1.679-3.694,3.682
		s1.691,3.682,3.694,3.682c0.684,0,1.355-0.192,1.931-0.552l0.24,0.48c-0.66,0.396-1.403,0.6-2.171,0.6
		c-2.314,0-4.209-1.883-4.209-4.21s1.895-4.222,4.209-4.222C5.325,10.975,6.068,11.19,6.716,11.574z"/>
	<path d="M12.681,16.336c0,1.679-1.332,3.046-2.951,3.046c-1.631,0-2.962-1.368-2.962-3.046c0-1.679,1.332-3.046,2.962-3.046
		C11.349,13.29,12.681,14.657,12.681,16.336z M12.237,16.336c0-1.416-1.127-2.567-2.507-2.567c-1.391,0-2.519,1.151-2.519,2.567
		c0,1.415,1.127,2.566,2.519,2.566C11.109,18.902,12.237,17.751,12.237,16.336z"/>
	<path d="M16.006,13.781c-1.08,0.096-1.907,1.031-2.123,2.123v3.466h-0.408V13.35h0.408v1.403c0,0,0.252-0.419,0.624-0.768
		c0.419-0.384,0.936-0.576,1.499-0.635V13.781z"/>
	<path d="M19.306,13.781c-1.08,0.096-1.907,1.031-2.123,2.123v3.466h-0.408V13.35h0.408v1.403c0,0,0.252-0.419,0.624-0.768
		c0.419-0.384,0.936-0.576,1.499-0.635V13.781z"/>
	<path d="M25.041,16.552h-5.445c0.216,1.583,1.403,2.351,2.506,2.351c0.444,0,0.912-0.156,1.295-0.372l0.72,0.012
		c-0.54,0.516-1.259,0.815-2.015,0.815c-1.619,0-2.938-1.355-2.938-3.034c0-1.667,1.319-3.034,2.938-3.034
		C23.757,13.29,25.005,14.717,25.041,16.552z M24.561,16.096c-0.312-1.571-1.355-2.362-2.459-2.362
		c-1.103,0-2.254,0.695-2.495,2.362H24.561z"/>
	<path d="M26.315,10.339v9.019h-0.518l0.002-9.019H26.315z"/>
	<path d="M32.493,19.37v-1.175l-0.624,0.516c-0.516,0.432-1.151,0.66-1.823,0.66c-1.595,0-2.891-1.343-2.891-2.986
		c0-1.655,1.295-2.986,2.891-2.986c0.671,0,1.307,0.228,1.823,0.66l0.624,0.516v-1.188h0.516v5.985H32.493z M32.433,16.108V16.06
		c-0.168-1.259-1.151-2.135-2.387-2.135c-1.355,0-2.387,1.067-2.387,2.458s1.031,2.447,2.387,2.447c1.235,0,2.219-0.875,2.387-2.123
		V16.108z"/>
	<path d="M37.222,14.321h-1.487v5.062h-0.479v-5.062h-1.5v-0.492h1.5v-2.89h0.467l0.012,2.89h1.487V14.321z"/>
	<path d="M37.98,11.263c0-0.156,0.132-0.276,0.276-0.276c0.156,0,0.276,0.12,0.276,0.276c0,0.144-0.12,0.264-0.276,0.264
		C38.112,11.526,37.98,11.406,37.98,11.263z M38.459,13.374v6.021H37.98v-6.021H38.459z"/>
	<path d="M45.165,16.336c0,1.679-1.332,3.046-2.951,3.046c-1.631,0-2.962-1.368-2.962-3.046c0-1.679,1.332-3.046,2.962-3.046
		C43.833,13.29,45.165,14.657,45.165,16.336z M44.721,16.336c0-1.416-1.127-2.567-2.507-2.567c-1.391,0-2.519,1.151-2.519,2.567
		c0,1.415,1.127,2.566,2.519,2.566C43.593,18.902,44.721,17.751,44.721,16.336z"/>
	<path d="M46.416,15.568l0.012,3.802h-0.456v-5.973h0.456v1.223c0,0,0.3-0.419,0.6-0.66c0.468-0.372,1.031-0.587,1.607-0.587
		c0.924,0,1.763,0.516,2.255,1.367c0.228,0.384,0.372,0.828,0.408,1.283c0,0.204,0.024,0.672-0.012,3.334h-0.432l-0.012-3.49
		c-0.096-1.08-1.188-2.063-2.207-2.063C47.627,13.805,46.715,14.537,46.416,15.568z"/>
	<path d="M52.056,18.615l0.204-0.348c0.432,0.396,0.911,0.66,1.751,0.672c0.779-0.012,1.307-0.528,1.307-1.283
		c0-0.996-0.947-1.211-1.331-1.235c-0.828-0.048-1.955-0.372-1.955-1.523c0-0.863,0.708-1.595,1.679-1.595
		c0.54,0,1.103,0.228,1.427,0.552l-0.228,0.408c-0.348-0.335-0.72-0.492-1.188-0.516c-0.624,0-1.247,0.42-1.247,1.151
		c0,0.792,0.684,1.067,1.355,1.104c0.9,0.048,1.931,0.6,1.931,1.655c0,0.959-0.78,1.703-1.751,1.703
		C53.207,19.358,52.428,19.07,52.056,18.615z"/>
</g>
<text transform="matrix(1 0 0 1 56.9307 19.3887)" font-family="'Alcubierre'" font-size="27">AI</text>
</svg>
